<svg width="49" height="48" fill="none" xmlns="http://www.w3.org/2000/svg"><path fill-rule="evenodd" clip-rule="evenodd" d="M37.471.013c-2.684.263-4.393.67-5.812 1.383-1.292.65-1.915 1.35-1.917 2.153-.001.496.203.889.708 1.361 1.147 1.073 3.458 1.83 6.583 2.158 1.057.11 3.664.094 4.82-.03 4.867-.527 7.807-2.306 6.881-4.166-.507-1.02-2.384-1.98-4.846-2.48-1.484-.301-2.225-.368-4.257-.387-1.05-.01-2.022-.006-2.16.008zm-7.745 7.94l.017 2.838.184.393c1.19 2.551 7.994 3.933 13.648 2.773 2.637-.54 4.546-1.556 5.133-2.728l.157-.313.012-2.915c.011-2.599.003-2.885-.077-2.634-.264.839-1.456 1.754-3.062 2.35C40.96 9.495 33.34 8.85 30.604 6.438c-.34-.3-.725-.858-.779-1.129-.02-.105-.056-.192-.077-.192-.022 0-.032 1.277-.022 2.838zM8.33 7.256c-2.099.185-4.134.683-5.415 1.326-1.34.673-1.967 1.367-1.97 2.182-.007 1.661 2.938 3.081 7.291 3.515.97.097 3.605.097 4.57 0 4.374-.44 7.299-1.85 7.292-3.515-.002-.433-.154-.78-.51-1.168-1.08-1.173-3.726-2.063-6.97-2.343-.87-.075-3.419-.073-4.288.003zM.926 15.102c.01 1.843.038 2.858.085 3.025.49 1.722 3.864 3.155 8.039 3.413.883.055 2.82.029 3.63-.048l.437-.042.22-.415c.585-1.104 1.502-1.9 3.033-2.632.766-.367 2.066-.803 2.978-1 .362-.079.678-.16.702-.18.055-.047.096-4.896.041-4.896-.021 0-.056.087-.077.192-.06.3-.464.857-.864 1.19-1.231 1.027-3.222 1.726-5.91 2.076-1.511.196-3.926.196-5.437 0-2.845-.37-4.988-1.163-6.108-2.261-.34-.333-.69-.891-.69-1.1 0-.054-.02-.097-.046-.097s-.04 1.249-.033 2.775zm28.8-.346c.01 1.336.039 2.446.063 2.466.025.021.34.102.702.18 1.482.32 3.099.964 4.148 1.651.853.559 1.656 1.438 1.944 2.128.052.124.146.242.21.261.063.02.608.067 1.21.106 2.033.13 4.325-.06 6.198-.516 1.973-.48 3.526-1.277 4.22-2.163.482-.615.477-.568.47-3.752-.004-1.977-.025-2.757-.068-2.605-.09.314-.458.842-.79 1.136-2.74 2.414-10.355 3.057-15.14 1.278-1.596-.593-2.798-1.514-3.038-2.328-.044-.149-.095-.27-.113-.27-.018-.001-.025 1.092-.015 2.428zm-5.902 4.446c-4.28.222-7.55 1.37-8.322 2.923a1.542 1.542 0 00-.039 1.281c.542 1.195 2.8 2.252 5.794 2.71 1.231.19 2.18.255 3.663.255.74 0 1.684-.029 2.097-.065 3.249-.28 5.887-1.168 6.97-2.343.356-.388.508-.735.51-1.168.006-1.623-2.839-3.04-6.98-3.476-.86-.09-2.938-.156-3.693-.117zM.942 19.56c-.017.017-.016 1.323.001 2.904l.031 2.874.157.313c.212.425.875 1.066 1.477 1.426 2.16 1.294 5.959 1.944 9.603 1.643a7.12 7.12 0 00.548-.063l.141-.03v-5.616l-.454.057c-.25.031-1.158.058-2.019.06-2.226.003-3.932-.23-5.692-.775-2.034-.63-3.448-1.647-3.724-2.678-.022-.08-.053-.131-.07-.115zm47.869.17c-.054.271-.44.829-.779 1.128-1.196 1.055-3.424 1.832-6.21 2.165-1.006.12-3.628.147-4.429.045l-.454-.058v2.806c0 2.618.008 2.807.11 2.836.128.036.757.085 1.768.14.875.046 2.61-.062 3.756-.234 3.124-.469 5.484-1.588 6.14-2.912l.152-.308.031-2.9c.017-1.595.014-2.9-.008-2.9-.021 0-.056.086-.077.192zm-33.484 7.448l.017 2.863.186.383c.764 1.57 3.677 2.774 7.499 3.1 1.314.112 3.791.049 4.99-.128 1.814-.267 3.574-.809 4.693-1.443.675-.383 1.357-1.035 1.597-1.529l.187-.383.017-2.863c.009-1.575-.005-2.85-.03-2.834-.027.016-.048.077-.048.135-.001.18-.352.732-.662 1.042-1.152 1.154-3.577 2.014-6.568 2.329-1.373.144-4.188.097-5.384-.09-2.81-.441-4.714-1.187-5.76-2.257-.33-.338-.655-.846-.656-1.024 0-.058-.022-.119-.048-.135-.026-.016-.04 1.26-.03 2.834zM.963 29.633l.011 2.916.157.31c.887 1.761 4.577 3.058 8.92 3.135.985.018 2.377-.046 2.708-.123l.141-.033v-5.617l-.454.058c-.25.031-1.158.058-2.019.06-2.214.003-3.833-.213-5.585-.743-2.12-.643-3.498-1.619-3.841-2.722-.027-.086-.044 1.155-.038 2.759zm47.848-2.692c-.054.27-.44.829-.779 1.128-1.196 1.055-3.424 1.832-6.21 2.165-1.006.12-3.628.147-4.429.045l-.454-.058v2.806c0 2.618.008 2.807.11 2.836.126.035.742.084 1.768.139 1.351.073 3.758-.16 5.228-.506 2.02-.475 3.674-1.309 4.377-2.205.475-.606.47-.577.49-3.736.008-1.544-.002-2.806-.024-2.806-.021 0-.056.086-.077.192zm-33.467 7.463l-.002 2.859.185.37c.791 1.58 3.684 2.776 7.505 3.102 1.288.11 3.845.045 4.986-.127 3.286-.494 5.603-1.587 6.291-2.967l.189-.378-.003-2.859c-.002-2.482-.014-2.827-.087-2.62-.572 1.604-3.344 2.864-7.203 3.275-1.376.147-4.182.1-5.395-.09-3.527-.552-5.854-1.714-6.378-3.185-.074-.207-.085.138-.088 2.62zM.947 36.781l-.004 2.853.187.395c.698 1.479 3.315 2.632 6.95 3.062.972.115 3.429.14 4.32.043l.469-.051.016-2.826.016-2.825-.454.057c-.797.101-3.487.074-4.461-.045-3.215-.392-5.649-1.363-6.608-2.636a2.556 2.556 0 01-.343-.611c-.073-.233-.084.107-.088 2.584zm47.84-2.555c-.157.572-.943 1.32-1.947 1.85-2.202 1.164-6.177 1.752-9.479 1.402l-.423-.045.016 2.825.017 2.825.47.05c.756.08 3.222.074 4.037-.01 3.931-.402 6.894-1.758 7.35-3.363.072-.256.135-5.8.066-5.8-.02 0-.067.12-.107.266zm-33.443 7.389l-.002 2.859.19.38c.777 1.558 3.713 2.769 7.5 3.092 1.288.11 3.845.045 4.986-.127 3.286-.494 5.603-1.587 6.291-2.967l.189-.378-.006-2.86c-.003-1.571-.026-2.787-.053-2.7-.15.493-.704 1.147-1.344 1.583-.496.338-1.5.805-2.228 1.036-1.22.386-2.137.57-3.702.74-1.317.143-4.15.095-5.344-.09-3.517-.545-5.865-1.717-6.39-3.189-.073-.206-.084.139-.087 2.62z" fill="#386CF6"/></svg>