<svg width="49" height="48" fill="none" xmlns="http://www.w3.org/2000/svg"><path fill-rule="evenodd" clip-rule="evenodd" d="M23.258.03C18.188.4 13.475 2.3 9.543 5.558c-.733.607-2.453 2.327-3.045 3.045-4.32 5.236-6.226 11.79-5.376 18.473.527 4.148 2.24 8.287 4.78 11.551.897 1.153 2.13 2.47 3.151 3.368 6.503 5.712 15.468 7.5 23.634 4.712a24.138 24.138 0 0011.173-7.973 23.92 23.92 0 004.597-10.04c1.468-7.365-.564-14.918-5.535-20.581-.55-.627-1.895-1.95-2.495-2.456C36.69 2.512 32.272.631 27.373.1 26.52.008 24.12-.033 23.258.03zm11.274 10.798c1.508.291 2.78 1.333 3.34 2.732.255.64.3.896.3 1.683 0 .561-.022.815-.091 1.074-.432 1.605-1.61 2.818-3.174 3.264-.521.15-1.454.183-2 .073a8.85 8.85 0 00-.503-.092c-.068-.006-.64.953-2.466 4.133a746.737 746.737 0 00-2.403 4.202c-.014.034.086.183.223.333 2.42 2.65 1.607 6.871-1.628 8.452-2.876 1.405-6.372-.061-7.409-3.108-.356-1.044-.356-2.396 0-3.44a5.99 5.99 0 01.736-1.428 3.71 3.71 0 00.226-.327c0-.016-2.395-2.215-2.873-2.638-.104-.092-.11-.092-.441.027-.485.174-1 .248-1.468.212-1.84-.141-3.254-1.655-3.25-3.48a3.288 3.288 0 01.375-1.597c.19-.385.304-.54.65-.885.691-.692 1.494-1.024 2.48-1.026 1.565-.003 2.873.99 3.357 2.549.144.46.158 1.321.03 1.796a4.472 4.472 0 01-.473 1.073l-.102.152 1.286 1.174c.707.646 1.378 1.257 1.49 1.358l.205.183.507-.247c.279-.136.726-.307.995-.379.442-.119.57-.131 1.346-.131.773 0 .905.012 1.339.13a6 6 0 01.742.248l.262.12 2.355-4.11c1.296-2.26 2.355-4.127 2.355-4.15 0-.022-.111-.15-.248-.283a4.735 4.735 0 01-1.205-2.018c-.118-.385-.132-.51-.135-1.19-.002-.595.017-.833.089-1.098.468-1.732 1.788-2.988 3.508-3.336.43-.087 1.234-.09 1.673-.005z" fill="#386CF6"/></svg>