<svg width="49" height="48" fill="none" xmlns="http://www.w3.org/2000/svg"><path fill-rule="evenodd" clip-rule="evenodd" d="M4.937.182c-1.84.512-3.334 2.02-3.824 3.864C.863 4.98.86 27 1.108 27.932a5.51 5.51 0 003.873 3.887c.465.124 1.537.172 3.87.173 3.014.001 3.222-.013 3.16-.218-.37-1.24-.388-1.615-.388-7.84 0-7.09-.007-7.023.842-8.81.706-1.487 2.083-2.861 3.594-3.589 1.772-.854 1.712-.848 8.81-.848 6.225 0 6.6.019 7.841.39.204.06.219-.143.219-3.062 0-1.838-.058-3.399-.14-3.788-.406-1.91-1.973-3.535-3.903-4.05-.9-.239-23.087-.235-23.949.005zM18.705 16.14c-.57.165-1.472 1.095-1.636 1.689-.086.309-.134 2.514-.134 6.167s.048 5.857.134 6.167c.175.63 1.03 1.48 1.691 1.676.73.219 11.611.219 12.342 0 .664-.198 1.475-1.008 1.673-1.672.218-.731.218-11.612 0-12.342-.198-.664-1.009-1.475-1.673-1.673-.632-.189-11.746-.2-12.397-.012zm19.146.077c.37 1.242.389 1.615.389 7.904 0 6.389-.003 6.442-.292 7.372-.426 1.372-1.073 2.447-2.072 3.447-1 1-2.075 1.646-3.447 2.073-.93.289-.984.291-7.373.291-6.289 0-6.662-.018-7.904-.389-.204-.061-.218.146-.217 3.161.001 2.292.05 3.407.168 3.85a5.51 5.51 0 003.873 3.888c.844.224 22.664.257 23.724.035 1.959-.41 3.666-2.117 4.083-4.084.098-.462.14-4.022.14-11.772s-.042-11.31-.14-11.771c-.405-1.91-1.971-3.536-3.902-4.05-.465-.123-1.537-.171-3.87-.172-3.014-.002-3.221.013-3.16.217z" fill="#386CF6"/></svg>