<svg width="42" height="48" fill="none" xmlns="http://www.w3.org/2000/svg"><path fill-rule="evenodd" clip-rule="evenodd" d="M20.213.178c-.209.097-.741.503-1.184.901-2.636 2.372-5.546 3.971-8.959 4.923-1.938.541-4.864.934-7.026.944-1.345.006-1.822.216-2.225.981-.195.37-.198.47-.203 6.945-.006 7.112.024 7.695.573 11.121 1.71 10.68 7.557 17.614 18.212 21.595 1.58.59 1.557.592 3.826-.299 3.063-1.203 6.007-2.867 8.277-4.678 1.23-.982 3.187-2.987 4.145-4.247 2.57-3.383 4.184-7.393 5.018-12.465.534-3.25.569-3.932.563-11.027-.005-6.552-.005-6.57-.21-6.96-.248-.47-.591-.753-1.052-.867-.188-.047-1.046-.108-1.905-.138C31.932 6.7 26.886 4.771 22.817 1.08 21.629.002 21.032-.205 20.213.178zm8.822 17.612c.616.65 1.134 1.216 1.15 1.259.016.043-2.384 2.33-5.332 5.083-5.447 5.085-5.858 5.426-6.534 5.424-.685-.002-.97-.252-3.694-3.246-1.45-1.594-2.711-2.982-2.804-3.086-.164-.184-.141-.211 1.082-1.282.687-.6 1.278-1.108 1.314-1.125.035-.018.986.981 2.113 2.22 1.126 1.239 2.099 2.261 2.16 2.272.062.01 2.18-1.94 4.706-4.335 2.526-2.395 4.62-4.357 4.655-4.36.035-.003.567.526 1.184 1.176z" fill="#386CF6"/></svg>